PathFileType	4	(X/Y/Z)	E:\Qualisys_Data\Carbon_Farble_Plate\Data\Amateur_Runner\S14\T1\S14T1V12_c3d.trc
DataRate	CameraRate	NumFrames	NumMarkers	Units	OrigDataRate	OrigDataStartFrame	OrigNumFrames
200.000000	200.000000	4	39	mm	200.000000	295	338
Frame#	Time	LSHO			RSHO			LICST			RICST			LASIS			LHEEL			RASIS			LTROC			RTROC			SACR			LTH1			LSK4			LTH2			LTH3			RHM5			LSK2			LTH4			RTH1			LTOE			RTH2			RTH3			RTH4			LLEP			RLEP			LSK1			LSK3			RSK1			LHM5			RSK2			LFT1			RSK3			RSK4			LLME			RLME			RTOE			RHEEL			RFT1			RFT2			LFT2			
		X1	Y1	Z1	X2	Y2	Z2	X3	Y3	Z3	X4	Y4	Z4	X5	Y5	Z5	X6	Y6	Z6	X7	Y7	Z7	X8	Y8	Z8	X9	Y9	Z9	X10	Y10	Z10	X11	Y11	Z11	X12	Y12	Z12	X13	Y13	Z13	X14	Y14	Z14	X15	Y15	Z15	X16	Y16	Z16	X17	Y17	Z17	X18	Y18	Z18	X19	Y19	Z19	X20	Y20	Z20	X21	Y21	Z21	X22	Y22	Z22	X23	Y23	Z23	X24	Y24	Z24	X25	Y25	Z25	X26	Y26	Z26	X27	Y27	Z27	X28	Y28	Z28	X29	Y29	Z29	X30	Y30	Z30	X31	Y31	Z31	X32	Y32	Z32	X33	Y33	Z33	X34	Y34	Z34	X35	Y35	Z35	X36	Y36	Z36	X37	Y37	Z37	X38	Y38	Z38	X39	Y39	Z39	

296	1.475	2341.1435546875	1446.83056640625	-523.9630126953125	2294.376708984375	1450.160034179688	-227.0227508544922	2291.99951171875	993.6075439453124	-499.7453308105469	2313.410400390625	1005.19091796875	-223.3267822265625	2331.697265625	943.416015625	-473.3481750488281	1849.025390625	198.6304931640625	-358.295166015625	2343.00439453125	963.6142578125	-243.1112823486328	2171.702880859375	883.32421875	-501.3831481933594	2211.4150390625	909.0050659179688	-184.6226348876953	2165.987060546875	1005.445556640625	-361.8090209960938	2204.542724609375	651.9764404296875	-502.9556884765625	1978.166748046875	356.8460693359375	-443.6566772460938	2132.496826171875	670.2421875	-477.97265625	2192.475830078125	555.6731567382812	-475.3137512207031	2359.445556640625	121.6376800537109	-193.1925048828125	2035.401489257812	435.5921020507812	-464.0672912597656	2116.851806640625	575.184326171875	-456.8428344726562	2451.052734375	740.6742553710938	-199.9510192871094	2034.81005859375	39.68111419677734	-387.5043029785156	2384.21728515625	703.611083984375	-183.4838256835938	2499.94775390625	656.0538330078125	-225.5868225097656	2431.0732421875	613.9491577148438	-201.3531494140625	2144.30517578125	495.7254333496094	-464.0551147460938	2470.928955078125	564.1084594726562	-211.5266265869141	2102.442138671875	388.1274719238281	-460.9313354492188	2041.866577148438	307.0844116210938	-445.0191040039062	2449.44287109375	445.8427429199219	-205.3743133544922	1968.484741210938	53.9967155456543	-445.2398376464844	2373.218505859375	485.2667236328125	-201.2029571533203	1849.0537109375	174.4751129150391	-329.0045776367188	2394.98681640625	357.4826354980469	-215.2177429199219	2327.619140625	400.5427856445312	-210.1313171386719	1908.227783203125	185.1576232910156	-418.6243286132812	2271.282958984375	233.385986328125	-224.2352142333984	2427.29833984375	94.07047271728516	-254.97021484375	2207.908447265625	232.049072265625	-277.5014038085938	2207.32958984375	197.5888671875	-305.6848754882812	2198.102294921875	211.8415222167969	-249.3718109130859	1833.215087890625	174.66357421875	-382.2249755859375
297	1.48	2357.62109375	1451.305908203125	-522.9899291992188	2307.6279296875	1453.969482421875	-226.7191162109375	2308.64697265625	997.2449340820312	-499.3630065917969	2328.64990234375	1009.732971191406	-223.5725402832031	2347.6015625	946.5718994140624	-472.0799560546875	1860.228149414062	207.6137847900391	-360.0706481933594	2359.804931640625	968.1587524414062	-242.8245391845703	2188.203125	888.1560668945312	-501.2413024902344	2228.38720703125	913.40966796875	-184.3266296386719	2183.621826171875	1009.089050292969	-361.8230895996094	2217.586669921875	656.5821533203125	-503.6541137695312	1987.82763671875	363.2544860839844	-444.1423645019531	2145.92529296875	676.1117553710938	-478.0895690917969	2204.0634765625	560.9990234375	-476.9113464355469	2393.9384765625	118.0382537841797	-193.9517211914062	2045.0927734375	442.1281127929688	-464.7546691894531	2128.899169921875	580.9614868164062	-457.8047790527344	2466.710205078125	743.2810668945312	-200.3887023925781	2037.589477539062	38.39063262939453	-388.0431213378906	2400.102783203125	707.0026245117188	-183.7002258300781	2515.29345703125	658.3192138671875	-226.1061096191406	2446.335693359375	617.0482177734375	-201.7353210449219	2154.867431640625	500.9185485839844	-465.2354431152344	2486.510498046875	566.2622680664062	-211.8126373291016	2112.153564453125	394.69873046875	-462.5059814453125	2051.575927734375	313.292724609375	-447.1492309570312	2468.982666015625	446.6416320800781	-205.855712890625	1972.519287109375	55.99296188354492	-445.8162231445312	2391.010986328125	482.5087280273438	-201.1122894287109	1859.122680664062	183.6069488525391	-330.1188354492188	2418.30322265625	355.9625244140625	-215.4188690185547	2348.993896484375	395.9231872558594	-210.2835998535156	1917.772827148438	190.6535339355469	-420.0159912109375	2299.6552734375	226.2250061035156	-223.6839294433594	2463.603271484375	94.37603759765624	-255.8558959960938	2237.506591796875	221.3246154785156	-278.2787780761719	2238.447509765625	187.6860046386719	-306.9408874511719	2228.5009765625	200.7215881347656	-250.382568359375	1842.903198242188	184.6265106201172	-383.5910949707031
298	1.485	2373.828369140625	1455.2451171875	-522.0962524414062	2323.419921875	1457.446166992188	-227.3646240234375	2326.380615234375	1001.319763183594	-498.9495544433594	2347.232177734375	1013.930480957031	-223.1845092773438	2366.46923828125	950.7158813476562	-472.6796569824219	1871.923583984375	216.9308166503906	-361.7420043945312	2377.055908203125	972.1386108398438	-242.7449645996094	2204.93896484375	892.5482788085938	-501.3944091796875	2245.434814453125	917.30712890625	-184.4919891357422	2200.557861328125	1012.992736816406	-361.7250366210938	2230.41748046875	661.0656127929688	-504.4833984375	1997.976806640625	369.2314453125	-445.1964111328125	2159.181396484375	681.6343994140625	-478.7185363769531	2216.04833984375	565.8126220703125	-478.3281860351562	2428.348876953125	115.0128402709961	-194.6065063476562	2055.325927734375	448.144287109375	-465.0896911621094	2141.25927734375	586.6419677734375	-457.8646545410156	2482.5244140625	745.7830200195312	-200.5764312744141	2040.57080078125	36.17839431762695	-388.4042053222656	2415.470703125	709.3232421875	-184.8427734375	2528.8359375	659.9815063476562	-225.5382080078125	2461.115966796875	619.21337890625	-203.3204345703125	2165.710693359375	506.8425903320312	-466.9364929199219	2501.465576171875	567.4452514648438	-213.1260833740234	2122.03076171875	400.62841796875	-464.2059020996094	2061.54248046875	319.2056579589844	-448.8745727539062	2487.916015625	447.3628845214844	-205.8855438232422	1977.006225585938	58.59627914428711	-446.5379333496094	2408.552978515625	479.55517578125	-201.3735198974609	1869.977416992188	193.1726531982422	-331.7785034179688	2441.674560546875	354.157470703125	-215.6248016357422	2370.819091796875	391.1091613769531	-210.5723114013672	1927.96337890625	197.0965728759766	-421.8003540039062	2329.94775390625	218.3571014404297	-225.3146667480469	2499.13623046875	95.26338958740234	-256.5332946777344	2267.2939453125	210.7495727539062	-278.6640014648438	2270.07275390625	177.0210876464844	-308.0593872070312	2259.179443359375	189.4941253662109	-251.2870788574219	1854.112915039062	194.7906799316406	-385.3064880371094
299	1.49	2390.7568359375	1459.267944335938	-521.1218872070312	2338.1064453125	1460.910034179688	-227.6743774414062	2343.76611328125	1005.041198730469	-498.5807495117188	2367.17724609375	1017.482299804688	-225.5553741455078	2383.575439453125	953.999755859375	-472.8844604492188	1886.379028320312	226.3025360107422	-363.2027893066406	2394.385986328125	976.2134399414062	-242.7152252197266	2219.864990234375	897.3037719726562	-503.2349243164062	2262.41845703125	921.2388305664062	-184.0619201660156	2218.21435546875	1017.2802734375	-362.2568664550781	2243.899658203125	665.7216186523438	-505.6067199707031	2008.6259765625	375.106689453125	-445.2085266113281	2173.0576171875	686.6251831054688	-478.0780334472656	2228.279296875	570.0277709960938	-479.277587890625	2462.782958984375	112.750358581543	-195.8200378417969	2066.14453125	454.3280639648438	-464.9964294433594	2153.9501953125	592.2349243164062	-458.5623779296875	2497.854248046875	747.344970703125	-200.5111694335938	2043.701416015625	34.69722747802734	-388.5841369628906	2430.386474609375	711.453125	-185.3985443115234	2545.64111328125	661.8117065429688	-226.5615081787109	2475.66943359375	621.4935913085938	-203.6973266601562	2176.637451171875	512.2806396484375	-467.8475646972656	2516.168212890625	568.8799438476562	-213.4229278564453	2132.774658203125	406.5807189941406	-465.4715576171875	2072.016357421875	324.9901123046875	-450.76708984375	2506.99951171875	447.6845397949219	-206.4163818359375	1981.604125976562	61.30092239379883	-447.0384521484375	2426.424560546875	475.931396484375	-201.603759765625	1881.012451171875	202.9855041503906	-333.0855407714844	2464.8857421875	352.6322631835938	-216.0125274658203	2392.40673828125	386.4072265625	-210.9709167480469	1937.283447265625	202.9258880615234	-423.6273193359375	2359.453857421875	210.9459991455078	-226.0515899658203	2534.63134765625	96.82951354980467	-257.1102294921875	2297.1591796875	200.3930816650391	-279.681640625	2301.83056640625	166.7108917236328	-309.2460327148438	2290.019775390625	178.9730224609375	-252.1128082275391	1865.686279296875	204.9139862060547	-386.510498046875
